<svg xmlns="http://www.w3.org/2000/svg" xml:space="preserve" stroke-linecap="round" stroke-linejoin="round" stroke-miterlimit="10" clip-rule="evenodd" viewBox="0 0 24 24"><g fill="#7ab9e9"><path d="M19.75 2A2.25 2.25 0 0 1 22 4.25v5.462a3.25 3.25 0 0 1-.952 2.298l-8.5 8.503a3.255 3.255 0 0 1-4.597.001L3.489 16.06a3.25 3.25 0 0 1-.004-4.596l8.5-8.51a3.25 3.25 0 0 1 2.3-.953h5.465Zm0 1.5h-5.466c-.464 0-.91.185-1.238.513l-8.512 8.523a1.75 1.75 0 0 0 .015 2.462l4.461 4.454a1.755 1.755 0 0 0 2.477 0l8.5-8.503a1.75 1.75 0 0 0 .513-1.237V4.25a.75.75 0 0 0-.75-.75ZM17 5.502a1.5 1.5 0 1 1 0 3 1.5 1.5 0 0 1 0-3Z"/><path d="M11.764 7.784a.363.363 0 0 0-.491.34v5.88a1.94 1.94 0 1 0 .716 1.726.363.363 0 0 0 .011-.091v-4.566l3.387 1.27a.364.364 0 0 0 .492-.34v-1.584c0-.657-.408-1.245-1.023-1.476l-3.092-1.16Zm-.491 7.734a1.212 1.212 0 1 1-2.424 0 1.212 1.212 0 0 1 2.424 0Zm3.878-4.04L12 10.296V8.65l2.6.975c.332.124.551.44.551.795v1.059Z"/></g></svg>